<?xml version="1.0" encoding="UTF-8" ?>
<!DOCTYPE svg PUBLIC "-//W3C//DTD SVG 1.1//EN" "http://www.w3.org/Graphics/SVG/1.1/DTD/svg11.dtd">
<svg width="300pt" height="300pt" viewBox="0 0 300 300" version="1.1" xmlns="http://www.w3.org/2000/svg">
<g id="#ffffffff">
<path fill="#ffffff" opacity="1.00" d=" M 0.00 0.00 L 300.00 0.00 L 300.00 171.55 C 296.07 168.69 291.93 166.16 287.73 163.73 C 286.58 165.47 285.41 167.51 282.99 167.08 C 262.93 167.19 242.86 167.04 222.80 167.07 C 223.76 166.04 224.73 165.02 225.70 164.00 C 226.55 163.92 228.25 163.77 229.10 163.70 C 229.37 161.68 229.63 159.65 229.95 157.64 C 230.35 159.80 230.64 161.97 230.95 164.14 C 236.74 163.60 242.56 163.81 248.36 164.01 C 247.34 163.61 245.30 162.82 244.28 162.43 C 245.14 159.86 246.83 157.75 248.56 155.71 C 246.69 156.34 244.86 157.07 243.05 157.83 C 243.01 157.34 242.93 156.35 242.88 155.86 C 241.75 156.30 240.65 156.81 239.55 157.31 C 238.70 156.93 237.85 156.54 237.01 156.16 C 237.15 158.46 237.21 160.77 237.20 163.08 C 235.24 163.08 233.28 163.07 231.33 163.04 C 232.81 161.75 234.35 160.52 235.85 159.25 C 234.36 158.93 232.86 158.61 231.37 158.31 C 232.56 158.10 234.93 157.68 236.12 157.47 C 234.54 156.79 232.93 156.18 231.31 155.62 C 231.52 154.74 231.73 153.86 231.94 152.98 C 230.30 152.95 228.67 152.94 227.03 152.91 L 226.08 152.88 C 224.55 152.66 223.74 153.31 223.64 154.82 C 223.18 159.25 222.23 163.81 219.05 167.15 C 206.46 167.07 193.87 167.14 181.28 167.10 C 181.51 164.38 181.75 161.66 181.99 158.94 C 182.75 158.93 184.26 158.92 185.02 158.91 C 189.88 158.86 194.73 158.87 199.59 158.92 C 199.43 161.29 199.24 163.65 199.06 166.02 C 200.61 165.95 202.15 165.87 203.70 165.80 C 203.91 163.52 204.13 161.24 204.34 158.96 C 209.90 158.84 215.46 158.88 221.01 158.89 C 221.09 158.08 221.25 156.44 221.32 155.62 C 217.41 155.47 213.30 155.74 209.63 154.11 C 212.39 151.27 214.80 148.08 216.48 144.49 C 211.85 144.49 209.10 148.47 206.67 151.83 C 205.35 153.24 204.35 155.70 202.05 155.38 C 199.66 155.80 198.76 153.10 197.48 151.62 C 196.73 149.52 196.13 147.38 195.53 145.24 C 193.81 145.06 192.09 144.88 190.37 144.73 C 191.69 147.83 193.13 150.87 194.56 153.92 C 191.64 155.62 188.17 155.72 184.90 155.52 C 184.29 155.40 183.07 155.14 182.45 155.02 C 182.77 152.82 183.09 150.62 183.39 148.42 C 184.90 148.28 186.42 148.14 187.94 148.00 C 187.96 147.17 188.01 145.50 188.04 144.67 C 179.11 144.71 170.18 144.62 161.27 145.12 C 161.21 145.82 161.11 147.23 161.05 147.93 C 162.81 148.04 164.57 148.14 166.34 148.24 C 166.08 153.71 163.94 158.84 163.53 164.29 C 162.70 171.53 161.72 179.47 156.11 184.72 C 161.61 185.26 167.04 184.29 172.36 182.99 C 172.43 184.50 172.50 186.00 172.57 187.51 C 173.88 187.51 175.20 187.53 176.53 187.56 C 177.72 182.39 178.16 177.11 178.50 171.83 C 198.04 170.72 217.64 172.04 237.19 171.42 C 236.41 174.93 235.31 178.36 234.76 181.92 C 236.38 181.88 238.00 181.83 239.63 181.79 C 239.92 178.46 240.30 175.15 240.60 171.83 C 248.46 171.26 256.35 171.75 264.22 171.46 C 263.88 174.97 263.50 178.47 263.22 181.99 C 264.11 181.97 265.90 181.94 266.79 181.92 C 267.14 178.44 267.59 174.97 268.01 171.51 C 278.67 171.54 289.35 171.11 300.00 171.75 L 300.00 300.00 L 0.00 300.00 L 0.00 156.92 C 2.58 163.85 4.46 171.64 10.48 176.51 C 16.85 182.60 25.60 184.77 33.87 186.95 C 45.85 190.14 58.53 187.33 69.71 182.62 C 75.86 179.77 81.36 175.74 86.90 171.89 C 93.41 167.14 98.74 161.02 104.13 155.08 C 111.37 147.17 117.51 138.37 124.38 130.15 C 125.97 131.00 127.56 131.87 129.19 132.66 C 133.74 135.11 138.78 136.75 144.00 136.67 C 150.54 136.62 157.11 137.03 163.64 136.45 C 171.98 135.53 180.73 128.76 179.93 119.63 C 180.07 115.96 180.48 111.98 178.18 108.82 C 172.24 99.06 159.93 95.74 149.15 95.94 C 141.88 96.33 134.58 98.01 127.81 100.66 C 122.48 103.36 116.67 105.17 111.87 108.82 C 108.14 111.46 104.50 114.22 100.95 117.10 C 93.00 123.60 85.29 130.39 77.16 136.67 C 72.76 140.28 67.96 143.37 62.97 146.09 C 58.42 148.38 54.05 151.22 49.03 152.36 C 45.41 152.65 41.76 152.68 38.14 152.46 C 35.05 148.69 30.60 145.14 30.33 139.92 C 30.68 133.99 33.57 127.98 38.58 124.61 C 42.03 122.27 45.70 120.28 49.38 118.34 C 54.36 116.82 59.32 115.07 64.53 114.46 C 71.88 113.57 79.31 113.73 86.69 114.01 C 85.98 116.36 85.10 118.65 84.41 121.00 C 90.94 117.30 96.90 112.55 101.89 106.94 C 95.60 105.68 89.38 103.87 82.92 103.78 C 80.69 103.65 78.46 103.54 76.23 103.50 C 66.21 103.07 56.15 102.95 46.15 103.89 C 38.96 105.36 31.41 106.35 24.93 110.03 C 13.20 114.97 1.67 125.20 1.82 138.91 C 1.37 138.93 0.46 138.98 0.00 139.00 L 0.00 0.00 M 123.04 144.80 C 122.67 150.41 120.13 155.53 119.60 161.10 C 130.34 161.04 141.09 161.38 151.81 160.88 C 151.85 160.18 151.91 158.76 151.95 158.05 C 142.43 157.89 132.90 158.31 123.39 157.75 C 125.21 154.77 125.57 151.25 126.09 147.88 C 135.10 147.75 144.12 147.82 153.14 147.84 C 153.09 149.24 153.04 150.64 152.99 152.05 C 144.81 152.24 136.64 151.96 128.47 152.24 C 128.40 152.96 128.27 154.40 128.20 155.11 C 137.37 155.24 146.55 155.24 155.72 155.12 C 156.38 151.66 157.52 148.32 158.18 144.86 C 146.47 144.64 134.75 144.74 123.04 144.80 M 251.34 156.23 C 248.28 157.87 248.17 161.29 248.65 164.32 C 251.31 164.18 253.97 163.91 256.62 163.69 C 257.03 161.65 256.64 158.94 259.04 158.07 C 259.04 160.11 258.99 162.15 258.95 164.20 C 259.43 164.23 260.39 164.29 260.87 164.32 L 260.96 163.37 L 262.38 163.45 L 261.86 164.21 C 262.59 164.10 264.05 163.88 264.77 163.76 C 264.89 161.16 264.98 158.55 264.98 155.95 C 260.40 155.71 255.89 156.95 251.34 156.23 M 123.72 164.40 C 121.32 169.12 116.97 172.41 114.31 176.96 C 116.06 176.90 117.89 177.22 119.61 176.71 C 121.19 175.23 122.47 173.46 123.99 171.92 C 125.63 171.43 127.36 171.37 129.06 171.18 C 126.29 175.86 122.33 179.72 119.83 184.60 C 121.38 184.62 122.93 184.65 124.48 184.67 C 127.75 180.11 131.33 175.80 134.97 171.54 C 137.18 171.49 139.40 171.50 141.61 171.61 C 136.74 175.99 133.56 181.82 128.78 186.27 C 130.98 186.15 133.41 186.58 135.39 185.37 C 138.81 181.42 142.18 177.42 145.31 173.24 C 146.83 170.81 149.99 171.63 152.38 171.36 C 152.06 174.77 151.64 178.18 151.35 181.61 C 148.95 182.20 146.52 182.60 144.08 182.91 C 143.96 183.71 143.73 185.31 143.61 186.11 C 147.37 185.90 151.15 185.86 154.88 185.32 C 154.97 179.14 155.82 172.95 158.25 167.22 C 148.22 166.92 138.18 167.23 128.15 167.10 C 128.35 166.08 128.54 165.06 128.74 164.05 C 127.07 164.15 125.39 164.27 123.72 164.40 M 195.02 178.09 C 190.27 180.35 185.19 182.09 179.96 182.79 C 179.77 183.97 179.59 185.16 179.42 186.35 C 186.19 186.21 192.18 182.39 198.90 182.25 C 204.76 182.92 210.01 186.13 215.99 186.41 C 216.08 185.53 216.24 183.76 216.33 182.88 C 211.03 182.19 206.12 180.07 201.35 177.79 C 201.39 176.32 201.42 174.86 201.46 173.40 C 200.61 173.46 198.91 173.60 198.06 173.67 C 196.48 174.72 196.93 177.36 195.02 178.09 M 218.91 183.01 C 218.87 183.77 218.81 185.30 218.77 186.06 C 219.76 186.67 220.73 187.50 221.99 187.34 C 226.02 187.44 230.06 187.14 234.10 187.41 L 234.62 188.13 C 233.77 189.77 234.21 192.47 232.15 193.20 C 226.99 195.12 221.69 196.66 216.21 197.35 C 216.15 198.87 216.10 200.39 216.06 201.91 C 222.68 201.31 228.48 197.49 235.03 196.80 C 241.23 197.75 246.53 202.03 253.01 202.05 C 252.98 200.48 252.95 198.91 252.93 197.35 C 247.68 196.94 242.80 194.92 237.77 193.59 C 237.47 191.50 237.38 189.40 237.23 187.30 C 245.40 187.33 253.57 187.33 261.75 187.31 C 261.01 192.32 258.83 197.01 258.72 202.12 C 260.33 201.96 261.93 201.78 263.55 201.60 C 263.85 196.83 264.88 192.10 264.60 187.30 C 271.57 187.37 278.55 187.24 285.52 187.40 C 285.54 187.01 285.59 186.23 285.61 185.84 L 286.56 185.86 C 286.65 185.17 286.82 183.77 286.91 183.08 C 264.24 182.91 241.57 183.04 218.91 183.01 Z" />
<path fill="#ffffff" opacity="1.00" d=" M 141.00 117.00 C 146.68 113.87 153.32 113.78 159.62 113.37 C 163.26 114.50 165.91 117.31 167.99 120.37 C 163.61 126.11 155.92 127.79 149.09 128.10 C 145.63 128.12 142.17 127.94 138.72 127.73 C 140.06 124.65 141.37 121.54 142.32 118.31 C 137.23 122.03 131.86 125.36 126.19 128.13 C 130.03 123.15 135.55 119.91 141.00 117.00 Z" />
<path fill="#ffffff" opacity="1.00" d=" M 171.06 148.11 C 173.52 148.14 175.97 148.17 178.43 148.19 C 178.32 150.62 178.13 153.04 177.97 155.46 C 175.42 155.53 172.87 155.56 170.33 155.57 C 170.54 153.08 170.80 150.59 171.06 148.11 Z" />
<path fill="#ffffff" opacity="1.00" d=" M 167.65 159.43 C 170.84 158.94 174.07 158.83 177.30 158.85 C 177.08 161.47 176.83 164.09 176.64 166.71 C 173.43 167.03 170.21 167.16 166.99 167.13 C 167.22 164.56 167.48 162.00 167.65 159.43 Z" />
<path fill="#ffffff" opacity="1.00" d=" M 166.40 171.43 C 169.27 171.44 172.14 171.44 175.01 171.42 C 174.69 174.14 174.26 176.85 173.65 179.52 C 170.93 179.67 168.21 179.85 165.50 180.03 C 165.77 177.16 166.09 174.29 166.40 171.43 Z" />
</g>
<g id="#207fb8ff">
<path fill="#207fb8" opacity="1.00" d=" M 127.81 100.66 C 134.58 98.01 141.88 96.33 149.15 95.94 C 149.24 100.32 148.90 104.70 148.26 109.04 C 146.99 109.57 145.76 110.16 144.50 110.69 C 138.95 111.97 133.83 114.57 129.17 117.80 C 127.34 112.26 127.53 106.41 127.81 100.66 Z" />
</g>
<g id="#166aa2ff">
<path fill="#166aa2" opacity="1.00" d=" M 149.15 95.94 C 159.93 95.74 172.24 99.06 178.18 108.82 C 180.48 111.98 180.07 115.96 179.93 119.63 C 175.77 125.49 170.52 131.12 163.42 133.21 C 156.89 134.57 150.15 134.31 143.54 134.00 C 144.92 131.64 146.60 129.38 149.09 128.10 C 155.92 127.79 163.61 126.11 167.99 120.37 C 168.89 118.22 169.23 115.49 167.14 113.89 C 162.12 109.35 154.77 108.41 148.26 109.04 C 148.90 104.70 149.24 100.32 149.15 95.94 Z" />
</g>
<g id="#1f8fc7ff">
<path fill="#1f8fc7" opacity="1.00" d=" M 111.87 108.82 C 116.67 105.17 122.48 103.36 127.81 100.66 C 127.53 106.41 127.34 112.26 129.17 117.80 C 125.01 122.05 120.70 126.17 116.69 130.57 C 115.58 131.82 114.55 133.13 113.50 134.43 C 112.38 131.81 111.40 129.03 111.56 126.13 C 111.81 120.36 112.18 114.59 111.87 108.82 Z" />
</g>
<g id="#1f88c1ff">
<path fill="#1f88c1" opacity="1.00" d=" M 46.15 103.89 C 56.15 102.95 66.21 103.07 76.23 103.50 C 72.54 103.65 68.87 104.01 65.19 104.30 C 65.11 106.88 65.03 109.45 64.95 112.03 C 58.78 112.14 52.77 113.70 46.78 115.01 C 46.73 111.30 46.55 107.58 46.15 103.89 Z" />
</g>
<g id="#2077b0ff">
<path fill="#2077b0" opacity="1.00" d=" M 24.93 110.03 C 31.41 106.35 38.96 105.36 46.15 103.89 C 46.55 107.58 46.73 111.30 46.78 115.01 C 45.32 115.45 43.89 115.99 42.45 116.49 C 36.21 117.92 31.55 122.51 26.95 126.64 C 26.95 121.08 28.00 115.03 24.93 110.03 Z" />
</g>
<g id="#219ad1ff">
<path fill="#219ad1" opacity="1.00" d=" M 65.19 104.30 C 68.87 104.01 72.54 103.65 76.23 103.50 C 78.46 103.54 80.69 103.65 82.92 103.78 C 82.95 106.55 82.98 109.32 83.01 112.09 C 76.99 111.80 70.97 111.93 64.95 112.03 C 65.03 109.45 65.11 106.88 65.19 104.30 Z" />
</g>
<g id="#24a7dfff">
<path fill="#24a7df" opacity="1.00" d=" M 82.92 103.78 C 89.38 103.87 95.60 105.68 101.89 106.94 C 96.90 112.55 90.94 117.30 84.41 121.00 C 85.10 118.65 85.98 116.36 86.69 114.01 C 86.73 113.63 86.81 112.85 86.85 112.46 C 85.57 112.31 84.29 112.18 83.01 112.09 C 82.98 109.32 82.95 106.55 82.92 103.78 Z" />
</g>
<g id="#219bd3ff">
<path fill="#219bd3" opacity="1.00" d=" M 100.95 117.10 C 104.50 114.22 108.14 111.46 111.87 108.82 C 112.18 114.59 111.81 120.36 111.56 126.13 C 111.40 129.03 112.38 131.81 113.50 134.43 C 110.07 138.96 106.07 143.01 102.33 147.27 C 100.56 137.27 103.02 127.04 100.95 117.10 Z" />
</g>
<g id="#aaacb0ff">
<path fill="#aaacb0" opacity="1.00" d=" M 144.50 110.69 C 145.76 110.16 146.99 109.57 148.26 109.04 C 154.77 108.41 162.12 109.35 167.14 113.89 C 169.23 115.49 168.89 118.22 167.99 120.37 C 165.91 117.31 163.26 114.50 159.62 113.37 C 154.89 111.16 149.58 111.21 144.50 110.69 Z" />
</g>
<g id="#1568a1ff">
<path fill="#1568a1" opacity="1.00" d=" M 1.82 138.91 C 1.67 125.20 13.20 114.97 24.93 110.03 C 28.00 115.03 26.95 121.08 26.95 126.64 C 23.58 133.57 22.57 142.79 28.12 148.92 C 26.59 151.11 26.05 153.71 26.60 156.32 C 27.69 163.16 27.11 170.08 26.19 176.90 C 17.30 174.23 9.10 168.50 5.01 159.98 C 1.38 153.59 1.69 146.00 1.82 138.91 Z" />
</g>
<g id="#b9bbbdff">
<path fill="#b9bbbd" opacity="1.00" d=" M 129.17 117.80 C 133.83 114.57 138.95 111.97 144.50 110.69 C 149.58 111.21 154.89 111.16 159.62 113.37 C 153.32 113.78 146.68 113.87 141.00 117.00 C 135.55 119.91 130.03 123.15 126.19 128.13 C 125.98 128.34 125.57 128.75 125.36 128.96 C 122.45 129.33 119.51 129.70 116.69 130.57 C 120.70 126.17 125.01 122.05 129.17 117.80 Z" />
</g>
<g id="#bcbdbfff">
<path fill="#bcbdbf" opacity="1.00" d=" M 46.78 115.01 C 52.77 113.70 58.78 112.14 64.95 112.03 C 70.97 111.93 76.99 111.80 83.01 112.09 C 84.29 112.18 85.57 112.31 86.85 112.46 C 86.81 112.85 86.73 113.63 86.69 114.01 C 79.31 113.73 71.88 113.57 64.53 114.46 C 59.32 115.07 54.36 116.82 49.38 118.34 C 47.05 117.78 44.77 117.08 42.45 116.49 C 43.89 115.99 45.32 115.45 46.78 115.01 Z" />
</g>
<g id="#d1d1d3ff">
<path fill="#d1d1d3" opacity="1.00" d=" M 26.95 126.64 C 31.55 122.51 36.21 117.92 42.45 116.49 C 44.77 117.08 47.05 117.78 49.38 118.34 C 45.70 120.28 42.03 122.27 38.58 124.61 C 33.57 127.98 30.68 133.99 30.33 139.92 C 30.60 145.14 35.05 148.69 38.14 152.46 C 34.54 152.14 31.22 150.67 28.12 148.92 C 22.57 142.79 23.58 133.57 26.95 126.64 Z" />
</g>
<g id="#23a5ddff">
<path fill="#23a5dd" opacity="1.00" d=" M 77.16 136.67 C 85.29 130.39 93.00 123.60 100.95 117.10 C 103.02 127.04 100.56 137.27 102.33 147.27 C 99.18 150.83 96.02 154.38 92.57 157.66 C 87.92 161.23 83.68 165.30 79.06 168.91 C 79.21 161.61 79.77 154.32 80.01 147.02 C 80.31 143.32 79.07 139.78 77.16 136.67 Z" />
</g>
<g id="#2081baff">
<path fill="#2081ba" opacity="1.00" d=" M 126.19 128.13 C 131.86 125.36 137.23 122.03 142.32 118.31 C 141.37 121.54 140.06 124.65 138.72 127.73 C 142.17 127.94 145.63 128.12 149.09 128.10 C 146.60 129.38 144.92 131.64 143.54 134.00 C 138.74 133.78 133.95 133.33 129.19 132.66 C 127.56 131.87 125.97 131.00 124.38 130.15 C 124.62 129.85 125.12 129.26 125.36 128.96 C 125.57 128.75 125.98 128.34 126.19 128.13 Z" />
</g>
<g id="#bfc4caff">
<path fill="#bfc4ca" opacity="1.00" d=" M 163.42 133.21 C 170.52 131.12 175.77 125.49 179.93 119.63 C 180.73 128.76 171.98 135.53 163.64 136.45 C 157.11 137.03 150.54 136.62 144.00 136.67 C 138.78 136.75 133.74 135.11 129.19 132.66 C 133.95 133.33 138.74 133.78 143.54 134.00 C 150.15 134.31 156.89 134.57 163.42 133.21 Z" />
</g>
<g id="#c8cacbff">
<path fill="#c8cacb" opacity="1.00" d=" M 116.69 130.57 C 119.51 129.70 122.45 129.33 125.36 128.96 C 125.12 129.26 124.62 129.85 124.38 130.15 C 117.51 138.37 111.37 147.17 104.13 155.08 C 100.29 155.96 96.41 156.71 92.57 157.66 C 96.02 154.38 99.18 150.83 102.33 147.27 C 106.07 143.01 110.07 138.96 113.50 134.43 C 114.55 133.13 115.58 131.82 116.69 130.57 Z" />
</g>
<g id="#2197cfff">
<path fill="#2197cf" opacity="1.00" d=" M 62.97 146.09 C 67.96 143.37 72.76 140.28 77.16 136.67 C 79.07 139.78 80.31 143.32 80.01 147.02 C 79.77 154.32 79.21 161.61 79.06 168.91 C 74.84 172.29 70.08 174.97 65.04 176.91 C 64.89 169.25 65.01 161.60 65.12 153.94 C 65.30 151.14 64.33 148.49 62.97 146.09 Z" />
</g>
<g id="#c0c1c3ff">
<path fill="#c0c1c3" opacity="1.00" d=" M 0.00 139.00 C 0.46 138.98 1.37 138.93 1.82 138.91 C 1.69 146.00 1.38 153.59 5.01 159.98 C 9.10 168.50 17.30 174.23 26.19 176.90 C 29.28 177.93 32.38 178.95 35.51 179.88 C 35.12 182.27 34.57 184.63 33.87 186.95 C 25.60 184.77 16.85 182.60 10.48 176.51 C 4.46 171.64 2.58 163.85 0.00 156.92 L 0.00 139.00 Z" />
</g>
<g id="#f47921ff">
<path fill="#f47921" opacity="1.00" d=" M 123.04 144.80 C 134.75 144.74 146.47 144.64 158.18 144.86 C 157.52 148.32 156.38 151.66 155.72 155.12 C 146.55 155.24 137.37 155.24 128.20 155.11 C 128.27 154.40 128.40 152.96 128.47 152.24 C 136.64 151.96 144.81 152.24 152.99 152.05 C 153.04 150.64 153.09 149.24 153.14 147.84 C 144.12 147.82 135.10 147.75 126.09 147.88 C 125.57 151.25 125.21 154.77 123.39 157.75 C 132.90 158.31 142.43 157.89 151.95 158.05 C 151.91 158.76 151.85 160.18 151.81 160.88 C 141.09 161.38 130.34 161.04 119.60 161.10 C 120.13 155.53 122.67 150.41 123.04 144.80 Z" />
</g>
<g id="#017dbeff">
<path fill="#017dbe" opacity="1.00" d=" M 161.27 145.12 C 170.18 144.62 179.11 144.71 188.04 144.67 C 188.01 145.50 187.96 147.17 187.94 148.00 C 186.42 148.14 184.90 148.28 183.39 148.42 C 183.09 150.62 182.77 152.82 182.45 155.02 C 182.27 156.32 182.12 157.63 181.99 158.94 C 181.75 161.66 181.51 164.38 181.28 167.10 C 193.87 167.14 206.46 167.07 219.05 167.15 C 220.30 167.13 221.55 167.10 222.80 167.07 C 242.86 167.04 262.93 167.19 282.99 167.08 C 285.41 167.51 286.58 165.47 287.73 163.73 C 291.93 166.16 296.07 168.69 300.00 171.55 L 300.00 171.75 C 289.35 171.11 278.67 171.54 268.01 171.51 C 267.59 174.97 267.14 178.44 266.79 181.92 C 265.90 181.94 264.11 181.97 263.22 181.99 C 263.50 178.47 263.88 174.97 264.22 171.46 C 256.35 171.75 248.46 171.26 240.60 171.83 C 240.30 175.15 239.92 178.46 239.63 181.79 C 238.00 181.83 236.38 181.88 234.76 181.92 C 235.31 178.36 236.41 174.93 237.19 171.42 C 217.64 172.04 198.04 170.72 178.50 171.83 C 178.16 177.11 177.72 182.39 176.53 187.56 C 175.20 187.53 173.88 187.51 172.57 187.51 C 172.50 186.00 172.43 184.50 172.36 182.99 C 167.04 184.29 161.61 185.26 156.11 184.72 C 161.72 179.47 162.70 171.53 163.53 164.29 C 163.94 158.84 166.08 153.71 166.34 148.24 C 164.57 148.14 162.81 148.04 161.05 147.93 C 161.11 147.23 161.21 145.82 161.27 145.12 M 171.06 148.11 C 170.80 150.59 170.54 153.08 170.33 155.57 C 172.87 155.56 175.42 155.53 177.97 155.46 C 178.13 153.04 178.32 150.62 178.43 148.19 C 175.97 148.17 173.52 148.14 171.06 148.11 M 167.65 159.43 C 167.48 162.00 167.22 164.56 166.99 167.13 C 170.21 167.16 173.43 167.03 176.64 166.71 C 176.83 164.09 177.08 161.47 177.30 158.85 C 174.07 158.83 170.84 158.94 167.65 159.43 M 166.40 171.43 C 166.09 174.29 165.77 177.16 165.50 180.03 C 168.21 179.85 170.93 179.67 173.65 179.52 C 174.26 176.85 174.69 174.14 175.01 171.42 C 172.14 171.44 169.27 171.44 166.40 171.43 Z" />
</g>
<g id="#007cbcff">
<path fill="#007cbc" opacity="1.00" d=" M 190.37 144.73 C 192.09 144.88 193.81 145.06 195.53 145.24 C 196.13 147.38 196.73 149.52 197.48 151.62 C 196.52 152.40 195.54 153.17 194.56 153.92 C 193.13 150.87 191.69 147.83 190.37 144.73 Z" />
</g>
<g id="#007cbdff">
<path fill="#007cbd" opacity="1.00" d=" M 206.67 151.83 C 209.10 148.47 211.85 144.49 216.48 144.49 C 214.80 148.08 212.39 151.27 209.63 154.11 C 208.63 153.36 207.64 152.60 206.67 151.83 Z" />
<path fill="#007cbd" opacity="1.00" d=" M 218.91 183.01 C 241.57 183.04 264.24 182.91 286.91 183.08 C 286.82 183.77 286.65 185.17 286.56 185.86 L 285.61 185.84 C 270.41 185.46 255.20 185.76 240.00 185.67 C 232.92 185.68 225.83 185.44 218.77 186.06 C 218.81 185.30 218.87 183.77 218.91 183.01 Z" />
</g>
<g id="#1f89c1ff">
<path fill="#1f89c1" opacity="1.00" d=" M 49.03 152.36 C 54.05 151.22 58.42 148.38 62.97 146.09 C 64.33 148.49 65.30 151.14 65.12 153.94 C 65.01 161.60 64.89 169.25 65.04 176.91 C 59.45 178.71 53.76 180.50 47.83 180.41 C 46.81 172.64 46.69 164.76 47.01 156.94 C 46.98 155.17 47.89 153.64 49.03 152.36 Z" />
</g>
<g id="#2078b1ff">
<path fill="#2078b1" opacity="1.00" d=" M 26.60 156.32 C 26.05 153.71 26.59 151.11 28.12 148.92 C 31.22 150.67 34.54 152.14 38.14 152.46 C 41.76 152.68 45.41 152.65 49.03 152.36 C 47.89 153.64 46.98 155.17 47.01 156.94 C 46.69 164.76 46.81 172.64 47.83 180.41 C 43.72 180.44 39.59 180.38 35.51 179.88 C 32.38 178.95 29.28 177.93 26.19 176.90 C 27.11 170.08 27.69 163.16 26.60 156.32 Z" />
</g>
<g id="#64afd6ff">
<path fill="#64afd6" opacity="1.00" d=" M 197.48 151.62 C 198.76 153.10 199.66 155.80 202.05 155.38 C 204.35 155.70 205.35 153.24 206.67 151.83 C 207.64 152.60 208.63 153.36 209.63 154.11 C 213.30 155.74 217.41 155.47 221.32 155.62 C 209.19 156.08 197.02 156.35 184.90 155.52 C 188.17 155.72 191.64 155.62 194.56 153.92 C 195.54 153.17 196.52 152.40 197.48 151.62 Z" />
</g>
<g id="#f3812eff">
<path fill="#f3812e" opacity="1.00" d=" M 223.64 154.82 C 223.74 153.31 224.55 152.66 226.08 152.88 C 226.12 154.60 225.31 155.25 223.64 154.82 Z" />
</g>
<g id="#fbd2b4ff">
<path fill="#fbd2b4" opacity="1.00" d=" M 226.08 152.88 L 227.03 152.91 C 226.49 156.59 226.02 160.29 225.70 164.00 C 224.73 165.02 223.76 166.04 222.80 167.07 C 221.55 167.10 220.30 167.13 219.05 167.15 C 222.23 163.81 223.18 159.25 223.64 154.82 C 225.31 155.25 226.12 154.60 226.08 152.88 Z" />
</g>
<g id="#f47f2bff">
<path fill="#f47f2b" opacity="1.00" d=" M 227.03 152.91 C 228.67 152.94 230.30 152.95 231.94 152.98 C 231.73 153.86 231.52 154.74 231.31 155.62 C 232.93 156.18 234.54 156.79 236.12 157.47 C 234.93 157.68 232.56 158.10 231.37 158.31 C 232.86 158.61 234.36 158.93 235.85 159.25 C 234.35 160.52 232.81 161.75 231.33 163.04 C 233.28 163.07 235.24 163.08 237.20 163.08 C 237.21 160.77 237.15 158.46 237.01 156.16 C 237.85 156.54 238.70 156.93 239.55 157.31 C 239.89 157.46 240.57 157.76 240.92 157.92 C 240.51 159.63 240.10 161.35 239.72 163.08 C 240.63 163.09 242.44 163.12 243.35 163.13 C 243.26 161.36 243.17 159.59 243.05 157.83 C 244.86 157.07 246.69 156.34 248.56 155.71 C 246.83 157.75 245.14 159.86 244.28 162.43 C 245.30 162.82 247.34 163.61 248.36 164.01 C 242.56 163.81 236.74 163.60 230.95 164.14 C 230.64 161.97 230.35 159.80 229.95 157.64 C 229.63 159.65 229.37 161.68 229.10 163.70 C 228.25 163.77 226.55 163.92 225.70 164.00 C 226.02 160.29 226.49 156.59 227.03 152.91 Z" />
</g>
<g id="#d5d6d8ff">
<path fill="#d5d6d8" opacity="1.00" d=" M 92.57 157.66 C 96.41 156.71 100.29 155.96 104.13 155.08 C 98.74 161.02 93.41 167.14 86.90 171.89 C 81.36 175.74 75.86 179.77 69.71 182.62 C 58.53 187.33 45.85 190.14 33.87 186.95 C 34.57 184.63 35.12 182.27 35.51 179.88 C 39.59 180.38 43.72 180.44 47.83 180.41 C 53.76 180.50 59.45 178.71 65.04 176.91 C 70.08 174.97 74.84 172.29 79.06 168.91 C 83.68 165.30 87.92 161.23 92.57 157.66 Z" />
</g>
<g id="#b7d9ecff">
<path fill="#b7d9ec" opacity="1.00" d=" M 181.99 158.94 C 182.12 157.63 182.27 156.32 182.45 155.02 C 183.07 155.14 184.29 155.40 184.90 155.52 C 184.93 156.37 184.99 158.06 185.02 158.91 C 184.26 158.92 182.75 158.93 181.99 158.94 Z" />
</g>
<g id="#017cbdff">
<path fill="#017cbd" opacity="1.00" d=" M 184.90 155.52 C 197.02 156.35 209.19 156.08 221.32 155.62 C 221.25 156.44 221.09 158.08 221.01 158.89 C 215.46 158.88 209.90 158.84 204.34 158.96 C 204.13 161.24 203.91 163.52 203.70 165.80 C 202.15 165.87 200.61 165.95 199.06 166.02 C 199.24 163.65 199.43 161.29 199.59 158.92 C 194.73 158.87 189.88 158.86 185.02 158.91 C 184.99 158.06 184.93 156.37 184.90 155.52 Z" />
<path fill="#017cbd" opacity="1.00" d=" M 234.62 188.13 C 235.61 189.72 236.49 191.38 237.41 193.01 L 237.77 193.59 C 242.80 194.92 247.68 196.94 252.93 197.35 C 252.95 198.91 252.98 200.48 253.01 202.05 C 246.53 202.03 241.23 197.75 235.03 196.80 C 228.48 197.49 222.68 201.31 216.06 201.91 C 216.10 200.39 216.15 198.87 216.21 197.35 C 221.69 196.66 226.99 195.12 232.15 193.20 C 234.21 192.47 233.77 189.77 234.62 188.13 Z" />
</g>
<g id="#fac8a3ff">
<path fill="#fac8a3" opacity="1.00" d=" M 239.55 157.31 C 240.65 156.81 241.75 156.30 242.88 155.86 C 242.93 156.35 243.01 157.34 243.05 157.83 C 243.17 159.59 243.26 161.36 243.35 163.13 C 242.44 163.12 240.63 163.09 239.72 163.08 C 240.10 161.35 240.51 159.63 240.92 157.92 C 240.57 157.76 239.89 157.46 239.55 157.31 Z" />
</g>
<g id="#f5893eff">
<path fill="#f5893e" opacity="1.00" d=" M 251.34 156.23 C 255.89 156.95 260.40 155.71 264.98 155.95 C 264.98 158.55 264.89 161.16 264.77 163.76 C 264.05 163.88 262.59 164.10 261.86 164.21 L 262.38 163.45 C 263.93 161.80 263.97 159.51 264.16 157.39 C 261.40 158.18 260.97 160.88 260.96 163.37 L 260.87 164.32 C 260.39 164.29 259.43 164.23 258.95 164.20 C 258.99 162.15 259.04 160.11 259.04 158.07 C 256.64 158.94 257.03 161.65 256.62 163.69 C 253.97 163.91 251.31 164.18 248.65 164.32 C 248.17 161.29 248.28 157.87 251.34 156.23 M 250.87 163.50 C 253.97 163.19 253.45 159.78 253.39 157.56 C 250.50 158.35 250.71 161.06 250.87 163.50 Z" />
</g>
<g id="#fef1e9ff">
<path fill="#fef1e9" opacity="1.00" d=" M 250.87 163.50 C 250.71 161.06 250.50 158.35 253.39 157.56 C 253.45 159.78 253.97 163.19 250.87 163.50 Z" />
</g>
<g id="#facaa7ff">
<path fill="#facaa7" opacity="1.00" d=" M 260.96 163.37 C 260.97 160.88 261.40 158.18 264.16 157.39 C 263.97 159.51 263.93 161.80 262.38 163.45 L 260.96 163.37 Z" />
</g>
<g id="#027dbeff">
<path fill="#027dbe" opacity="1.00" d=" M 123.72 164.40 C 125.39 164.27 127.07 164.15 128.74 164.05 C 128.54 165.06 128.35 166.08 128.15 167.10 C 138.18 167.23 148.22 166.92 158.25 167.22 C 155.82 172.95 154.97 179.14 154.88 185.32 C 151.15 185.86 147.37 185.90 143.61 186.11 C 143.73 185.31 143.96 183.71 144.08 182.91 C 146.52 182.60 148.95 182.20 151.35 181.61 C 151.64 178.18 152.06 174.77 152.38 171.36 C 149.99 171.63 146.83 170.81 145.31 173.24 C 142.18 177.42 138.81 181.42 135.39 185.37 C 133.41 186.58 130.98 186.15 128.78 186.27 C 133.56 181.82 136.74 175.99 141.61 171.61 C 139.40 171.50 137.18 171.49 134.97 171.54 C 131.33 175.80 127.75 180.11 124.48 184.67 C 122.93 184.65 121.38 184.62 119.83 184.60 C 122.33 179.72 126.29 175.86 129.06 171.18 C 127.36 171.37 125.63 171.43 123.99 171.92 C 122.47 173.46 121.19 175.23 119.61 176.71 C 117.89 177.22 116.06 176.90 114.31 176.96 C 116.97 172.41 121.32 169.12 123.72 164.40 Z" />
<path fill="#027dbe" opacity="1.00" d=" M 218.77 186.06 C 225.83 185.44 232.92 185.68 240.00 185.67 C 255.20 185.76 270.41 185.46 285.61 185.84 C 285.59 186.23 285.54 187.01 285.52 187.40 C 278.55 187.24 271.57 187.37 264.60 187.30 C 264.88 192.10 263.85 196.83 263.55 201.60 C 261.93 201.78 260.33 201.96 258.72 202.12 C 258.83 197.01 261.01 192.32 261.75 187.31 C 253.57 187.33 245.40 187.33 237.23 187.30 C 237.38 189.40 237.47 191.50 237.77 193.59 L 237.41 193.01 C 236.49 191.38 235.61 189.72 234.62 188.13 L 234.10 187.41 C 230.06 187.14 226.02 187.44 221.99 187.34 C 220.73 187.50 219.76 186.67 218.77 186.06 Z" />
</g>
<g id="#017dbdff">
<path fill="#017dbd" opacity="1.00" d=" M 195.02 178.09 C 196.93 177.36 196.48 174.72 198.06 173.67 C 198.91 173.60 200.61 173.46 201.46 173.40 C 201.42 174.86 201.39 176.32 201.35 177.79 C 206.12 180.07 211.03 182.19 216.33 182.88 C 216.24 183.76 216.08 185.53 215.99 186.41 C 210.01 186.13 204.76 182.92 198.90 182.25 C 192.18 182.39 186.19 186.21 179.42 186.35 C 179.59 185.16 179.77 183.97 179.96 182.79 C 185.19 182.09 190.27 180.35 195.02 178.09 Z" />
</g>
</svg>
