<?xml version="1.0" encoding="UTF-8" ?>
<!DOCTYPE svg PUBLIC "-//W3C//DTD SVG 1.1//EN" "http://www.w3.org/Graphics/SVG/1.1/DTD/svg11.dtd">
<svg width="300pt" height="300pt" viewBox="0 0 300 300" version="1.1" xmlns="http://www.w3.org/2000/svg">
<g id="#ffffffff">
<path fill="#ffffff" opacity="1.00" d=" M 141.00 117.00 C 146.68 113.85 153.33 113.82 159.63 113.37 C 163.23 114.56 166.02 117.21 167.96 120.41 C 163.57 126.11 155.93 127.83 149.11 128.11 C 145.65 128.13 142.20 127.94 138.75 127.72 C 140.08 124.64 141.37 121.54 142.31 118.31 C 137.13 121.98 131.85 125.60 126.02 128.15 C 129.92 123.17 135.54 119.99 141.00 117.00 Z" />
<path fill="#ffffff" opacity="1.00" d=" M 171.06 148.11 C 173.50 148.14 175.95 148.17 178.39 148.19 C 178.31 150.61 178.14 153.03 177.98 155.45 C 175.44 155.52 172.90 155.55 170.35 155.55 C 170.55 153.07 170.80 150.59 171.06 148.11 Z" />
<path fill="#ffffff" opacity="1.00" d=" M 167.62 159.43 C 170.82 158.92 174.06 158.82 177.29 158.86 C 177.08 161.48 176.83 164.09 176.65 166.71 C 173.44 167.04 170.22 167.17 167.00 167.12 C 167.22 164.56 167.47 162.00 167.62 159.43 Z" />
<path fill="#ffffff" opacity="1.00" d=" M 166.39 171.42 C 169.25 171.44 172.12 171.43 174.98 171.40 C 174.70 174.14 174.28 176.85 173.66 179.53 C 170.95 179.67 168.23 179.85 165.52 180.02 C 165.77 177.15 166.09 174.29 166.39 171.42 Z" />
</g>
<g id="#207fb8ff">
<path fill="#207fb8" opacity="1.00" d=" M 127.82 100.67 C 131.81 98.62 136.33 98.18 140.59 96.97 C 143.37 96.19 146.26 96.00 149.13 95.95 C 149.30 100.31 148.96 104.68 148.21 108.98 C 146.97 109.54 145.75 110.17 144.52 110.74 C 138.91 111.83 133.88 114.66 129.19 117.79 C 127.16 112.29 127.64 106.40 127.82 100.67 Z" />
</g>
<g id="#166aa2ff">
<path fill="#166aa2" opacity="1.00" d=" M 149.13 95.95 C 159.92 95.68 172.26 99.05 178.18 108.84 C 180.43 111.96 180.13 115.90 179.91 119.53 L 179.42 120.24 C 174.76 127.11 167.73 133.49 159.04 133.91 C 153.90 134.37 148.72 134.30 143.57 133.99 C 144.83 131.54 146.55 129.29 149.11 128.11 C 155.93 127.83 163.57 126.11 167.96 120.41 C 169.20 118.02 168.97 115.04 166.65 113.39 C 161.50 109.38 154.56 108.41 148.21 108.98 C 148.96 104.68 149.30 100.31 149.13 95.95 Z" />
</g>
<g id="#1f8fc7ff">
<path fill="#1f8fc7" opacity="1.00" d=" M 111.86 108.82 C 116.64 105.12 122.50 103.39 127.82 100.67 C 127.64 106.40 127.16 112.29 129.19 117.79 C 125.03 122.07 120.66 126.15 116.69 130.61 C 115.59 131.84 114.58 133.14 113.55 134.43 C 112.38 132.05 111.41 129.50 111.56 126.80 C 111.76 120.81 112.25 114.82 111.86 108.82 Z" />
</g>
<g id="#1f88c1ff">
<path fill="#1f88c1" opacity="1.00" d=" M 46.15 103.88 C 56.15 102.97 66.21 103.06 76.24 103.51 C 72.54 103.67 68.86 104.02 65.18 104.30 C 65.10 106.88 65.03 109.45 64.96 112.03 C 58.76 112.04 52.77 113.77 46.74 114.98 C 46.76 111.27 46.61 107.56 46.15 103.88 Z" />
</g>
<g id="#2077b0ff">
<path fill="#2077b0" opacity="1.00" d=" M 24.88 110.06 C 31.35 106.30 38.94 105.34 46.15 103.88 C 46.61 107.56 46.76 111.27 46.74 114.98 C 45.30 115.43 43.89 115.99 42.47 116.50 C 36.18 117.84 31.59 122.53 26.96 126.63 C 26.67 121.10 28.32 114.88 24.88 110.06 Z" />
</g>
<g id="#219ad1ff">
<path fill="#219ad1" opacity="1.00" d=" M 65.18 104.30 C 68.86 104.02 72.54 103.67 76.24 103.51 C 78.46 103.56 80.69 103.66 82.92 103.79 C 82.95 106.55 82.98 109.31 83.01 112.08 C 77.00 111.78 70.97 111.98 64.96 112.03 C 65.03 109.45 65.10 106.88 65.18 104.30 Z" />
</g>
<g id="#24a7dfff">
<path fill="#24a7df" opacity="1.00" d=" M 82.92 103.79 C 89.37 103.85 95.60 105.54 101.84 106.98 C 96.87 112.54 90.99 117.34 84.44 120.93 C 85.13 118.60 86.01 116.34 86.74 114.03 C 86.76 113.63 86.80 112.85 86.82 112.46 C 85.55 112.30 84.28 112.18 83.01 112.08 C 82.98 109.31 82.95 106.55 82.92 103.79 Z" />
</g>
<g id="#219bd3ff">
<path fill="#219bd3" opacity="1.00" d=" M 100.94 117.12 C 104.49 114.24 108.13 111.48 111.86 108.82 C 112.25 114.82 111.76 120.81 111.56 126.80 C 111.41 129.50 112.38 132.05 113.55 134.43 C 110.09 138.96 106.06 143.00 102.32 147.29 C 100.48 137.29 103.13 127.02 100.94 117.12 Z" />
</g>
<g id="#aaacb0ff">
<path fill="#aaacb0" opacity="1.00" d=" M 144.52 110.74 C 145.75 110.17 146.97 109.54 148.21 108.98 C 154.56 108.41 161.50 109.38 166.65 113.39 C 168.97 115.04 169.20 118.02 167.96 120.41 C 166.02 117.21 163.23 114.56 159.63 113.37 C 154.97 110.90 149.57 111.44 144.52 110.74 Z" />
</g>
<g id="#1568a1ff">
<path fill="#1568a1" opacity="1.00" d=" M 1.82 138.91 C 1.67 125.22 13.16 114.99 24.88 110.06 C 28.32 114.88 26.67 121.10 26.96 126.63 C 23.53 133.64 22.47 143.17 28.46 149.14 C 27.84 149.67 26.61 150.74 25.99 151.28 C 27.59 159.73 27.50 168.39 26.19 176.88 C 17.28 174.25 9.11 168.49 5.01 159.98 C 1.36 153.60 1.69 146.01 1.82 138.91 Z" />
</g>
<g id="#b9bbbdff">
<path fill="#b9bbbd" opacity="1.00" d=" M 129.19 117.79 C 133.88 114.66 138.91 111.83 144.52 110.74 C 149.57 111.44 154.97 110.90 159.63 113.37 C 153.33 113.82 146.68 113.85 141.00 117.00 C 135.54 119.99 129.92 123.17 126.02 128.15 C 125.74 128.28 125.18 128.52 124.90 128.64 C 122.17 129.31 119.38 129.79 116.69 130.61 C 120.66 126.15 125.03 122.07 129.19 117.79 Z" />
</g>
<g id="#bcbdbfff">
<path fill="#bcbdbf" opacity="1.00" d=" M 46.74 114.98 C 52.77 113.77 58.76 112.04 64.96 112.03 C 70.97 111.98 77.00 111.78 83.01 112.08 C 84.28 112.18 85.55 112.30 86.82 112.46 C 86.80 112.85 86.76 113.63 86.74 114.03 C 79.34 113.70 71.90 113.59 64.53 114.46 C 59.32 115.05 54.36 116.84 49.36 118.35 C 47.05 117.79 44.77 117.10 42.47 116.50 C 43.89 115.99 45.30 115.43 46.74 114.98 Z" />
</g>
<g id="#d1d1d3ff">
<path fill="#d1d1d3" opacity="1.00" d=" M 26.96 126.63 C 31.59 122.53 36.18 117.84 42.47 116.50 C 44.77 117.10 47.05 117.79 49.36 118.35 C 45.71 120.33 42.04 122.29 38.58 124.60 C 33.52 127.94 30.75 134.01 30.32 139.91 C 30.55 145.16 35.05 148.69 38.17 152.43 C 34.70 152.16 31.45 150.84 28.46 149.14 C 22.47 143.17 23.53 133.64 26.96 126.63 Z" />
</g>
<g id="#23a5ddff">
<path fill="#23a5dd" opacity="1.00" d=" M 77.13 136.71 C 85.26 130.42 92.96 123.61 100.94 117.12 C 103.13 127.02 100.48 137.29 102.32 147.29 C 99.19 150.85 95.99 154.36 92.59 157.67 C 87.90 161.19 83.70 165.32 79.07 168.91 C 79.15 160.93 79.97 152.98 79.97 145.00 C 80.10 141.96 78.67 139.22 77.13 136.71 Z" />
</g>
<g id="#2081baff">
<path fill="#2081ba" opacity="1.00" d=" M 126.02 128.15 C 131.85 125.60 137.13 121.98 142.31 118.31 C 141.37 121.54 140.08 124.64 138.75 127.72 C 142.20 127.94 145.65 128.13 149.11 128.11 C 146.55 129.29 144.83 131.54 143.57 133.99 C 138.75 133.79 133.93 133.33 129.15 132.68 C 127.66 131.96 126.23 131.15 124.82 130.31 C 124.84 129.89 124.88 129.06 124.90 128.64 C 125.18 128.52 125.74 128.28 126.02 128.15 Z" />
</g>
<g id="#bfc4caff">
<path fill="#bfc4ca" opacity="1.00" d=" M 159.04 133.91 C 167.73 133.49 174.76 127.11 179.42 120.24 L 179.91 119.53 C 180.59 125.78 176.41 131.41 171.01 134.09 C 163.65 138.15 154.98 136.31 146.98 136.71 C 140.78 137.03 134.57 135.74 129.15 132.68 C 133.93 133.33 138.75 133.79 143.57 133.99 C 148.72 134.30 153.90 134.37 159.04 133.91 Z" />
</g>
<g id="#c8cacbff">
<path fill="#c8cacb" opacity="1.00" d=" M 116.69 130.61 C 119.38 129.79 122.17 129.31 124.90 128.64 C 124.88 129.06 124.84 129.89 124.82 130.31 C 122.09 133.12 119.27 135.87 117.10 139.16 C 113.29 144.86 108.48 149.78 104.15 155.08 C 100.30 155.97 96.42 156.73 92.59 157.67 C 95.99 154.36 99.19 150.85 102.32 147.29 C 106.06 143.00 110.09 138.96 113.55 134.43 C 114.58 133.14 115.59 131.84 116.69 130.61 Z" />
</g>
<g id="#2197cfff">
<path fill="#2197cf" opacity="1.00" d=" M 62.91 146.12 C 67.91 143.40 72.72 140.33 77.13 136.71 C 78.67 139.22 80.10 141.96 79.97 145.00 C 79.97 152.98 79.15 160.93 79.07 168.91 C 74.82 172.26 70.10 175.01 65.04 176.92 C 64.84 168.59 65.11 160.27 65.05 151.95 C 65.17 149.77 64.01 147.89 62.91 146.12 Z" />
</g>
<g id="#c0c1c3ff">
<path fill="#c0c1c3" opacity="1.00" d=" M 0.00 139.01 C 0.46 138.98 1.37 138.93 1.82 138.91 C 1.69 146.01 1.36 153.60 5.01 159.98 C 9.11 168.49 17.28 174.25 26.19 176.88 C 29.26 177.91 32.33 178.97 35.43 179.90 C 35.29 182.32 34.73 184.69 33.83 186.94 C 25.35 184.70 16.36 182.45 9.96 176.03 C 4.22 171.18 2.63 163.60 0.00 156.94 L 0.00 139.01 Z" />
</g>
<g id="#f47921ff">
<path fill="#f47921" opacity="1.00" d=" M 123.03 144.82 C 134.73 144.73 146.45 144.62 158.15 144.88 C 157.55 148.33 156.40 151.66 155.72 155.10 C 146.54 155.25 137.36 155.29 128.19 155.07 C 128.26 154.37 128.40 152.97 128.47 152.27 C 136.64 151.91 144.82 152.27 152.99 152.04 C 153.04 150.64 153.08 149.25 153.13 147.85 C 144.11 147.81 135.09 147.74 126.08 147.90 C 125.58 151.27 125.24 154.80 123.33 157.73 C 132.86 158.34 142.41 157.87 151.94 158.06 C 151.91 158.77 151.85 160.17 151.81 160.88 C 141.10 161.39 130.37 161.04 119.66 161.10 C 119.96 155.50 122.73 150.43 123.03 144.82 Z" />
</g>
<g id="#017dbeff">
<path fill="#017dbe" opacity="1.00" d=" M 161.25 145.13 C 170.17 144.61 179.11 144.69 188.04 144.69 C 188.01 145.51 187.96 147.16 187.93 147.98 C 186.42 148.13 184.90 148.29 183.39 148.44 C 183.09 150.62 182.77 152.80 182.45 154.98 C 182.27 156.30 182.11 157.61 181.99 158.94 C 181.76 161.66 181.52 164.37 181.31 167.10 C 193.88 167.15 206.45 167.08 219.02 167.14 C 220.27 167.12 221.53 167.09 222.79 167.06 C 242.86 167.05 262.94 167.18 283.01 167.08 C 285.43 167.52 286.55 165.49 287.64 163.73 C 291.90 166.13 296.09 168.66 300.00 171.61 L 300.00 171.88 C 289.38 170.94 278.67 171.61 268.01 171.54 C 267.59 174.99 267.14 178.45 266.80 181.92 C 265.91 181.94 264.15 181.98 263.27 182.00 C 263.50 178.49 263.87 174.99 264.19 171.49 C 256.32 171.78 248.42 171.16 240.59 171.92 C 240.29 175.21 239.92 178.49 239.63 181.78 C 238.01 181.83 236.39 181.88 234.78 181.92 C 235.38 178.37 236.49 174.94 237.15 171.41 C 221.10 171.85 205.05 171.23 188.99 171.42 C 185.56 171.67 181.73 170.64 178.61 172.44 C 177.86 177.47 177.77 182.60 176.53 187.56 C 175.21 187.54 173.89 187.53 172.57 187.52 C 172.49 186.04 172.42 184.55 172.35 183.07 C 167.04 184.47 161.56 185.21 156.07 184.68 C 158.23 182.07 160.86 179.54 161.31 175.99 C 163.47 169.38 163.20 162.28 165.22 155.64 C 165.87 153.22 166.04 150.72 166.27 148.24 C 164.54 148.14 162.80 148.03 161.07 147.92 C 161.12 147.23 161.21 145.83 161.25 145.13 M 171.06 148.11 C 170.80 150.59 170.55 153.07 170.35 155.55 C 172.90 155.55 175.44 155.52 177.98 155.45 C 178.14 153.03 178.31 150.61 178.39 148.19 C 175.95 148.17 173.50 148.14 171.06 148.11 M 167.62 159.43 C 167.47 162.00 167.22 164.56 167.00 167.12 C 170.22 167.17 173.44 167.04 176.65 166.71 C 176.83 164.09 177.08 161.48 177.29 158.86 C 174.06 158.82 170.82 158.92 167.62 159.43 M 166.39 171.42 C 166.09 174.29 165.77 177.15 165.52 180.02 C 168.23 179.85 170.95 179.67 173.66 179.53 C 174.28 176.85 174.70 174.14 174.98 171.40 C 172.12 171.43 169.25 171.44 166.39 171.42 Z" />
</g>
<g id="#007cbcff">
<path fill="#007cbc" opacity="1.00" d=" M 190.41 144.74 C 192.12 144.89 193.83 145.06 195.54 145.23 C 196.12 147.33 196.70 149.43 197.41 151.50 C 196.44 152.28 195.48 153.07 194.53 153.86 C 193.18 150.81 191.70 147.82 190.41 144.74 Z" />
</g>
<g id="#007cbdff">
<path fill="#007cbd" opacity="1.00" d=" M 206.62 151.75 C 209.07 148.45 211.82 144.48 216.41 144.54 C 214.81 148.13 212.41 151.30 209.63 154.07 C 208.62 153.31 207.61 152.54 206.62 151.75 Z" />
<path fill="#007cbd" opacity="1.00" d=" M 218.89 183.02 C 241.56 183.03 264.24 182.90 286.91 183.09 C 286.82 183.78 286.65 185.17 286.57 185.86 L 285.63 185.83 C 272.42 185.48 259.21 185.75 246.00 185.67 C 236.95 185.77 227.89 185.36 218.85 186.00 C 218.86 185.25 218.88 183.77 218.89 183.02 Z" />
</g>
<g id="#1f89c1ff">
<path fill="#1f89c1" opacity="1.00" d=" M 49.05 152.35 C 54.07 151.29 58.37 148.35 62.91 146.12 C 64.01 147.89 65.17 149.77 65.05 151.95 C 65.11 160.27 64.84 168.59 65.04 176.92 C 59.45 178.68 53.78 180.54 47.84 180.40 C 46.70 172.64 46.82 164.76 47.00 156.94 C 46.89 155.13 47.78 153.56 49.05 152.35 Z" />
</g>
<g id="#2078b1ff">
<path fill="#2078b1" opacity="1.00" d=" M 25.99 151.28 C 26.61 150.74 27.84 149.67 28.46 149.14 C 31.45 150.84 34.70 152.16 38.17 152.43 C 41.79 152.67 45.43 152.65 49.05 152.35 C 47.78 153.56 46.89 155.13 47.00 156.94 C 46.82 164.76 46.70 172.64 47.84 180.40 C 43.70 180.42 39.55 180.38 35.43 179.90 C 32.33 178.97 29.26 177.91 26.19 176.88 C 27.50 168.39 27.59 159.73 25.99 151.28 Z" />
</g>
<g id="#64afd6ff">
<path fill="#64afd6" opacity="1.00" d=" M 197.41 151.50 C 198.66 154.08 200.98 155.57 203.84 155.74 C 204.75 154.40 205.67 153.06 206.62 151.75 C 207.61 152.54 208.62 153.31 209.63 154.07 C 213.23 155.94 217.41 155.35 221.32 155.63 C 209.18 156.03 197.01 156.28 184.88 155.56 C 187.70 155.66 190.52 155.44 193.29 154.90 C 193.60 154.64 194.22 154.12 194.53 153.86 C 195.48 153.07 196.44 152.28 197.41 151.50 Z" />
</g>
<g id="#f3812eff">
<path fill="#f3812e" opacity="1.00" d=" M 223.63 154.82 C 223.74 153.32 224.56 152.68 226.09 152.90 C 226.12 154.62 225.30 155.26 223.63 154.82 Z" />
</g>
<g id="#fbd2b4ff">
<path fill="#fbd2b4" opacity="1.00" d=" M 226.09 152.90 L 227.04 152.92 C 226.48 156.59 226.01 160.28 225.72 163.99 C 224.74 165.01 223.76 166.03 222.79 167.06 C 221.53 167.09 220.27 167.12 219.02 167.14 C 222.42 163.93 223.13 159.24 223.63 154.82 C 225.30 155.26 226.12 154.62 226.09 152.90 Z" />
</g>
<g id="#f47f2bff">
<path fill="#f47f2b" opacity="1.00" d=" M 227.04 152.92 C 228.68 152.94 230.31 152.95 231.95 152.96 C 231.72 153.89 231.48 154.82 231.25 155.74 C 232.68 156.15 234.50 156.13 235.29 157.64 C 234.57 157.83 233.12 158.21 232.40 158.40 C 233.30 158.92 234.24 159.34 235.16 159.85 C 233.83 160.86 232.76 162.16 231.36 163.08 C 233.29 163.09 235.23 163.11 237.16 163.04 C 237.20 160.74 237.14 158.44 237.02 156.14 C 237.86 156.53 238.71 156.91 239.56 157.31 C 239.88 157.47 240.52 157.79 240.85 157.95 C 240.56 159.67 240.17 161.37 239.81 163.09 C 240.68 163.09 242.42 163.11 243.29 163.12 C 243.25 161.37 243.21 159.61 243.09 157.87 C 244.86 157.00 246.69 156.27 248.63 155.84 C 246.80 157.79 244.84 159.75 244.43 162.52 C 245.41 162.88 247.36 163.60 248.33 163.96 C 242.54 163.85 236.75 163.61 230.98 164.14 C 230.67 161.97 230.34 159.81 229.94 157.66 C 229.61 159.66 229.34 161.67 229.08 163.68 C 228.24 163.76 226.56 163.91 225.72 163.99 C 226.01 160.28 226.48 156.59 227.04 152.92 Z" />
</g>
<g id="#d5d6d8ff">
<path fill="#d5d6d8" opacity="1.00" d=" M 92.59 157.67 C 96.42 156.73 100.30 155.97 104.15 155.08 C 98.26 161.53 92.43 168.23 85.13 173.16 C 78.85 177.38 72.65 182.01 65.35 184.33 C 55.34 187.90 44.25 189.80 33.83 186.94 C 34.73 184.69 35.29 182.32 35.43 179.90 C 39.55 180.38 43.70 180.42 47.84 180.40 C 53.78 180.54 59.45 178.68 65.04 176.92 C 70.10 175.01 74.82 172.26 79.07 168.91 C 83.70 165.32 87.90 161.19 92.59 157.67 Z" />
</g>
<g id="#b7d9ecff">
<path fill="#b7d9ec" opacity="1.00" d=" M 181.99 158.94 C 182.11 157.61 182.27 156.30 182.45 154.98 C 183.06 155.13 184.27 155.42 184.88 155.56 C 184.91 156.40 184.98 158.07 185.01 158.91 C 184.26 158.91 182.74 158.93 181.99 158.94 Z" />
</g>
<g id="#017cbdff">
<path fill="#017cbd" opacity="1.00" d=" M 184.88 155.56 C 197.01 156.28 209.18 156.03 221.32 155.63 C 221.24 156.45 221.09 158.08 221.02 158.90 C 215.46 158.87 209.90 158.83 204.34 158.99 C 204.12 161.26 203.90 163.52 203.69 165.79 C 202.16 165.87 200.62 165.94 199.09 166.02 C 199.25 163.65 199.42 161.29 199.55 158.92 C 194.70 158.87 189.86 158.85 185.01 158.91 C 184.98 158.07 184.91 156.40 184.88 155.56 Z" />
<path fill="#017cbd" opacity="1.00" d=" M 234.55 188.37 C 234.99 188.67 235.89 189.27 236.33 189.58 C 236.55 190.86 236.76 192.14 237.02 193.41 L 237.73 193.62 C 242.82 194.79 247.65 197.01 252.93 197.34 C 252.96 198.90 252.99 200.46 253.02 202.03 C 246.53 202.07 241.26 197.69 235.03 196.80 C 228.52 197.59 222.65 201.22 216.07 201.91 C 216.10 200.38 216.16 198.86 216.22 197.34 C 221.71 196.67 227.02 195.11 232.19 193.19 C 234.21 192.55 233.75 189.94 234.55 188.37 Z" />
</g>
<g id="#fac8a3ff">
<path fill="#fac8a3" opacity="1.00" d=" M 239.56 157.31 C 240.64 156.79 241.74 156.29 242.85 155.82 C 242.91 156.33 243.03 157.36 243.09 157.87 C 243.21 159.61 243.25 161.37 243.29 163.12 C 242.42 163.11 240.68 163.09 239.81 163.09 C 240.17 161.37 240.56 159.67 240.85 157.95 C 240.52 157.79 239.88 157.47 239.56 157.31 Z" />
</g>
<g id="#f5893eff">
<path fill="#f5893e" opacity="1.00" d=" M 248.53 159.46 C 249.29 157.58 251.31 156.67 252.82 155.49 C 253.51 156.12 254.19 156.76 254.88 157.40 C 257.90 155.46 261.57 155.98 264.97 156.01 C 264.98 158.60 264.90 161.20 264.78 163.79 C 264.05 163.88 262.58 164.08 261.84 164.17 L 262.41 163.47 C 264.19 161.97 263.92 159.53 264.13 157.45 C 261.29 158.13 260.83 160.79 260.97 163.31 L 260.91 164.26 C 260.42 164.25 259.44 164.22 258.95 164.20 C 258.99 162.19 259.04 160.19 259.05 158.18 C 256.47 158.81 257.07 161.69 256.65 163.70 C 254.01 163.92 251.37 164.18 248.73 164.29 C 248.60 162.68 248.38 161.07 248.53 159.46 M 250.86 163.42 C 254.03 163.34 253.49 159.81 253.34 157.63 C 250.48 158.37 250.71 161.02 250.86 163.42 Z" />
</g>
<g id="#fef1e9ff">
<path fill="#fef1e9" opacity="1.00" d=" M 250.86 163.42 C 250.71 161.02 250.48 158.37 253.34 157.63 C 253.49 159.81 254.03 163.34 250.86 163.42 Z" />
</g>
<g id="#facaa7ff">
<path fill="#facaa7" opacity="1.00" d=" M 260.97 163.31 C 260.83 160.79 261.29 158.13 264.13 157.45 C 263.92 159.53 264.19 161.97 262.41 163.47 L 260.97 163.31 Z" />
</g>
<g id="#027dbeff">
<path fill="#027dbe" opacity="1.00" d=" M 123.69 164.41 C 125.37 164.27 127.05 164.16 128.73 164.05 C 128.54 165.07 128.36 166.08 128.17 167.10 C 138.19 167.24 148.21 166.91 158.23 167.22 C 155.87 172.96 154.97 179.11 154.88 185.29 C 151.16 185.89 147.39 185.91 143.63 186.10 C 143.74 185.30 143.96 183.71 144.07 182.91 C 146.52 182.61 148.96 182.22 151.36 181.62 C 151.64 178.21 152.05 174.80 152.36 171.39 C 149.98 171.64 146.81 170.80 145.29 173.22 C 142.27 177.49 138.75 181.36 135.41 185.37 C 133.43 186.60 131.00 186.15 128.80 186.24 C 133.52 181.77 136.76 176.05 141.54 171.62 C 139.42 171.51 137.25 171.25 135.16 171.74 C 130.88 175.39 128.24 180.45 124.37 184.45 C 122.88 184.69 121.36 184.67 119.85 184.73 C 122.15 179.73 126.28 175.97 129.02 171.24 C 127.29 171.39 125.58 171.55 123.86 171.72 C 122.61 173.51 121.25 175.25 119.63 176.72 C 117.92 177.19 116.11 176.92 114.36 176.98 C 116.87 172.33 121.41 169.20 123.69 164.41 Z" />
<path fill="#027dbe" opacity="1.00" d=" M 218.85 186.00 C 227.89 185.36 236.95 185.77 246.00 185.67 C 259.21 185.75 272.42 185.48 285.63 185.83 C 285.61 186.23 285.57 187.02 285.55 187.41 C 278.57 187.25 271.60 187.35 264.63 187.34 C 264.86 192.13 263.86 196.85 263.55 201.61 C 261.95 201.78 260.35 201.95 258.75 202.11 C 258.75 197.00 261.04 192.34 261.71 187.33 C 253.57 187.33 245.42 187.33 237.28 187.33 C 237.40 189.42 237.48 191.53 237.73 193.62 L 237.02 193.41 C 236.76 192.14 236.55 190.86 236.33 189.58 C 235.89 189.27 234.99 188.67 234.55 188.37 C 229.96 185.26 223.08 189.62 218.85 186.00 Z" />
</g>
<g id="#017dbdff">
<path fill="#017dbd" opacity="1.00" d=" M 197.21 173.99 C 198.57 173.60 199.97 173.41 201.42 173.43 C 201.41 174.87 201.40 176.32 201.38 177.77 C 206.13 180.07 211.02 182.22 216.32 182.88 C 216.24 183.75 216.08 185.50 216.00 186.38 C 208.40 186.24 201.59 180.37 193.89 182.89 C 189.19 184.49 184.43 185.94 179.44 186.32 C 179.61 185.13 179.79 183.94 179.98 182.76 C 185.72 182.16 191.07 179.83 196.33 177.60 C 196.59 176.39 196.88 175.19 197.21 173.99 Z" />
</g>
</svg>
